<svg xmlns="http://www.w3.org/2000/svg" width="52" height="52" viewBox="0 0 52 52"><g><g><path fill="#37409c" d="M46.579 25.992l4.67-4.57c1.392-1.319.743-3.661-1.083-4.098L43.803 15.7l1.794-6.298c.507-1.812-1.201-3.52-3.012-3.014l-6.297 1.795-1.623-6.365C34.235.02 31.867-.637 30.569.734L26 5.441 21.43.734C20.149-.622 17.77 0 17.336 1.818l-1.623 6.365-6.296-1.795c-1.812-.507-3.52 1.203-3.013 3.014L8.197 15.7l-6.363 1.624c-1.827.437-2.475 2.78-1.083 4.097l4.67 4.57-4.67 4.572c-1.392 1.318-.743 3.66 1.083 4.097l6.363 1.624-1.794 6.298c-.507 1.812 1.201 3.52 3.012 3.013l6.297-1.794 1.623 6.365c.451 1.887 2.813 2.44 4.096 1.084L26 46.578l4.57 4.672c1.269 1.37 3.654.76 4.095-1.084l1.623-6.365 6.296 1.794c1.812.508 3.52-1.202 3.013-3.013l-1.794-6.298 6.363-1.624c1.827-.437 2.475-2.78 1.083-4.097l-4.67-4.571z"/></g></g></svg>