<svg xmlns="http://www.w3.org/2000/svg" width="52" height="52" viewBox="0 0 52 52"><g><g><g><path fill="#2b2d42" d="M46.583 34.666L52 37.375l-5.417 2.709-2.708 5.416-2.708-5.416-5.417-2.709 5.417-2.709 2.708-5.416zM5.417 10.834L0 8.125l5.417-2.709L8.125 0l2.708 5.416 5.417 2.709-5.417 2.709-2.708 5.416zM21.125 6.5l-3.25-1.625 3.25-1.625L22.75 0l1.625 3.25 3.25 1.625-3.25 1.625-1.625 3.25z"/></g><g><path fill="#37409c" d="M51.047 14.165L14.165 51.047a3.24 3.24 0 0 1-2.298.952c-.83 0-1.663-.317-2.297-.952L.952 42.43a3.249 3.249 0 0 1 0-4.596L37.834.953A3.237 3.237 0 0 1 40.132 0c.832 0 1.664.317 2.297.953l8.618 8.617a3.248 3.248 0 0 1 0 4.595zm-14.545 6.489l8.79-8.79-5.167-5.166-8.79 8.79z"/></g></g></g></svg>