<svg xmlns="http://www.w3.org/2000/svg" width="52" height="52" viewBox="0 0 52 52"><g><g><g><path fill="#37409c" d="M31.55 35.975l.91 5.304c.163.95-.839 1.677-1.69 1.228l-4.765-2.504-4.763 2.504c-.853.452-1.854-.278-1.691-1.228l.91-5.304-3.852-3.753c-.692-.675-.31-1.852.645-1.99l5.325-.776 2.38-4.826a1.148 1.148 0 0 1 1.044-.65c.417 0 .835.218 1.05.65l2.379 4.826 5.325.776c.954.138 1.337 1.315.645 1.99zM26.004 16.25c-9.872 0-17.875 8.003-17.875 17.875S16.133 52 26.005 52 43.88 43.997 43.88 34.125 35.877 16.25 26.005 16.25z"/></g><g><path d="M22.725 13.28L15.704 1.577A3.25 3.25 0 0 0 12.917 0H1.628C.313 0-.457 1.48.296 2.557l11.301 16.145a21.02 21.02 0 0 1 11.128-5.423z"/></g><g><path d="M50.377 0h-11.29c-1.14 0-2.199.6-2.786 1.578L29.28 13.28a21.025 21.025 0 0 1 11.127 5.422L51.708 2.557C52.462 1.48 51.692 0 50.377 0z"/></g></g></g></svg>