<svg xmlns="http://www.w3.org/2000/svg" width="64" height="52" viewBox="0 0 64 52"><g><g><g><path fill="#37409c" d="M61.05 11.698L33.84.368a4.815 4.815 0 0 0-3.69 0l-27.2 11.33A4.811 4.811 0 0 0 0 16.128v34.27c0 .44.36.8.8.8h8c.44 0 .8-.36.8-.8v-24.8c0-1.76 1.46-3.2 3.26-3.2h38.28c1.8 0 3.26 1.44 3.26 3.2v24.8c0 .44.36.8.8.8h8c.44 0 .8-.36.8-.8v-34.27c0-1.94-1.17-3.68-2.95-4.43z"/></g><g><path fill="#2b2d42" d="M50.4 35.2H13.64c-.44 0-.8.36-.8.8l-.01 4.8c0 .44.36.8.8.8H50.4c.44 0 .8-.36.8-.8V36c0-.44-.36-.8-.8-.8z"/></g><g><path fill="#2b2d42" d="M50.4 44.8H13.61c-.44 0-.8.36-.8.8l-.01 4.8c0 .44.36.8.8.8h36.8c.44 0 .8-.36.8-.8v-4.8c0-.44-.36-.8-.8-.8z"/></g><g><path fill="#2b2d42" d="M50.4 25.6H13.66c-.44 0-.8.36-.8.8l-.01 4.8c0 .44.36.8.8.8H50.4c.44 0 .8-.36.8-.8v-4.8c0-.44-.36-.8-.8-.8z"/></g></g></g></svg>