<svg xmlns="http://www.w3.org/2000/svg" width="46" height="52" viewBox="0 0 46 52"><g><g><g><path fill="#37409c" d="M31.749 30.803a.865.865 0 0 1-.005 1.223L21.433 42.25a.866.866 0 0 1-1.224-.005l-5.958-6.003a.865.865 0 0 1 .005-1.223l2.048-2.03a.866.866 0 0 1 1.224.004l3.317 3.342 7.648-7.583a.866.866 0 0 1 1.224.005zM0 20.719v26.406A4.875 4.875 0 0 0 4.875 52h35.75a4.875 4.875 0 0 0 4.875-4.875V20.719c0-.673-.546-1.219-1.219-1.219H1.22C.546 19.5 0 20.046 0 20.719z"/></g><g><path fill="#2b2d42" d="M44.281 16.25H1.22A1.219 1.219 0 0 1 0 15.031v-3.656A4.875 4.875 0 0 1 4.875 6.5H9.75V1.219C9.75.546 10.296 0 10.969 0h4.062c.673 0 1.219.546 1.219 1.219V6.5h13V1.219C29.25.546 29.796 0 30.469 0h4.062c.673 0 1.219.546 1.219 1.219V6.5h4.875a4.875 4.875 0 0 1 4.875 4.875v3.656c0 .673-.546 1.219-1.219 1.219z"/></g></g></g></svg>