<?xml version="1.0" encoding="UTF-8"?>
<svg width="19px" height="15px" viewBox="0 0 19 15" version="1.1" xmlns="http://www.w3.org/2000/svg" xmlns:xlink="http://www.w3.org/1999/xlink">
    <!-- Generator: Sketch 49.3 (51167) - http://www.bohemiancoding.com/sketch -->
    <title>"</title>
    <desc>Created with Sketch.</desc>
    <defs></defs>
    <g id="Page-1" stroke="none" stroke-width="1" fill="none" fill-rule="evenodd">
        <g id="Desktop" transform="translate(-334.000000, -4649.000000)" fill="#30404F">
            <g id="slide-5-2" transform="translate(-1.000000, 4445.000000)">
                <g id="review1" transform="translate(67.000000, 166.000000)">
                    <path d="M279.507937,53 L279,52.1207815 C281.878321,50.5221945 283.31746,49.0124405 283.31746,47.5914742 C283.31746,46.9875636 282.775667,46.3925429 281.692063,45.8063943 C280.726979,45.273532 280.05397,44.7406776 279.673016,44.2078153 C279.292062,43.6749529 279.101587,42.9822423 279.101587,42.1296625 C279.101587,40.9928895 279.486769,40.0204303 280.257143,39.2122558 C281.027517,38.4040812 281.946026,38 283.012698,38 C284.19789,38 285.158726,38.4973307 285.895238,39.4920071 C286.63175,40.4866835 287,41.7832957 287,43.3818828 C287,46.0106703 286.051861,48.2664204 284.155556,50.1492007 C283.512166,50.7708734 282.881485,51.2726446 282.263492,51.6545293 C281.6455,52.036414 280.72699,52.4848997 279.507937,53 Z M268.507937,53 L268,52.1207815 C270.878321,50.5044324 272.31746,48.9946784 272.31746,47.5914742 C272.31746,47.2539948 272.198943,46.9564844 271.961905,46.6989343 C271.724867,46.4413841 271.30159,46.1438738 270.692063,45.8063943 C269.760842,45.3090561 269.096298,44.7806422 268.698413,44.2211368 C268.300527,43.6616313 268.101587,42.9644802 268.101587,42.1296625 C268.101587,40.9751274 268.482536,39.9982278 269.244444,39.1989343 C270.006353,38.3996408 270.92063,38 271.987302,38 C273.189424,38 274.158726,38.4973307 274.895238,39.4920071 C275.63175,40.4866835 276,41.7832957 276,43.3818828 C276,44.6429903 275.758733,45.8507935 275.27619,47.0053286 C274.793648,48.1598637 274.078312,49.2078106 273.130159,50.1492007 C272.029624,51.2149254 270.488899,52.1651823 268.507937,53 Z" id="&quot;" transform="translate(277.500000, 45.500000) rotate(180.000000) translate(-277.500000, -45.500000) "></path>
                </g>
            </g>
        </g>
    </g>
</svg>