<svg version="1.1" xmlns="http://www.w3.org/2000/svg" xmlns:xlink="http://www.w3.org/1999/xlink" x="0px" y="0px" xml:space="preserve">

    <symbol id="logo">
        <g id="Page-1">
          <g id="Artboard" transform="translate(-122.000000, -152.000000)">
            <g id="logo_type2" transform="translate(122.000000, 152.000000)">
              <path id="ROOMPOTOLOK" fill="#FFFFFF" class="st0" d="M67,25v-6.1h2.2l4.2,6.1h8.8L77,17.5c1.5-0.8,2.6-1.8,3.4-3.1c0.8-1.3,1.2-2.8,1.2-4.6
                c0-1.9-0.5-3.5-1.4-4.9s-2.2-2.5-3.9-3.2s-3.6-1.1-5.9-1.1l0,0H58.7V25H67z M70,12.6h-3V6.9h3c1.1,0,2,0.3,2.5,0.8
                s0.8,1.2,0.8,2.1s-0.3,1.6-0.8,2.1S71.1,12.6,70,12.6L70,12.6z M98.5,25.6c2.6,0,5-0.5,7.1-1.6c2.1-1.1,3.7-2.6,4.9-4.6
                s1.8-4.1,1.8-6.6s-0.6-4.6-1.8-6.6s-2.8-3.5-4.9-4.6S101.1,0,98.5,0s-5,0.5-7.1,1.6s-3.7,2.6-4.9,4.6c-1.2,1.9-1.8,4.1-1.8,6.6
                s0.6,4.6,1.8,6.6c1.2,1.9,2.8,3.5,4.9,4.6C93.5,25,95.8,25.6,98.5,25.6z M98.5,18.9c-1,0-2-0.3-2.8-0.8c-0.8-0.5-1.5-1.2-2-2.1
                c-0.5-0.9-0.7-2-0.7-3.2s0.2-2.3,0.7-3.2s1.1-1.6,2-2.1s1.8-0.8,2.8-0.8s2,0.3,2.8,0.8s1.5,1.2,2,2.1s0.7,2,0.7,3.2
                s-0.2,2.3-0.7,3.2c-0.5,0.9-1.1,1.6-2,2.1C100.4,18.7,99.5,18.9,98.5,18.9z M129,25.6c2.6,0,5-0.5,7.1-1.6
                c2.1-1.1,3.7-2.6,4.9-4.6s1.8-4.1,1.8-6.6s-0.6-4.6-1.8-6.6s-2.8-3.5-4.9-4.6S131.6,0,129,0c-2.6,0-5,0.5-7.1,1.6
                s-3.7,2.6-4.9,4.6s-1.8,4.1-1.8,6.6s0.6,4.6,1.8,6.6s2.8,3.5,4.9,4.6C124,25,126.3,25.6,129,25.6z M129,18.9c-1,0-2-0.3-2.8-0.8
                c-0.8-0.5-1.5-1.2-2-2.1c-0.5-0.9-0.7-2-0.7-3.2s0.2-2.3,0.7-3.2s1.1-1.6,2-2.1s1.8-0.8,2.8-0.8c1,0,2,0.3,2.8,0.8s1.5,1.2,2,2.1
                s0.7,2,0.7,3.2s-0.2,2.3-0.7,3.2c-0.5,0.9-1.1,1.6-2,2.1C130.9,18.7,130,18.9,129,18.9z M154.2,25V14.3l5.3,8.6h3.6l5.3-8.9
                l0.1,11.1h7.5l-0.1-24.5h-6.8l-7.8,13l-8-13h-6.8V25H154.2z M63.9,44.5v-3.7H66c1.4,0,2.6-0.2,3.7-0.7s1.8-1.1,2.4-2
                c0.6-0.9,0.8-1.9,0.8-3s-0.3-2.2-0.8-3c-0.6-0.9-1.4-1.5-2.4-2c-1-0.5-2.3-0.7-3.7-0.7l0,0h-7.3v15.2H63.9z M65.7,36.8h-1.9v-3.6
                h1.9c0.7,0,1.2,0.2,1.6,0.5c0.3,0.3,0.5,0.7,0.5,1.3s-0.2,1-0.5,1.3C66.9,36.7,66.4,36.8,65.7,36.8L65.7,36.8z M83.3,44.9
                c1.6,0,3.1-0.3,4.4-1c1.3-0.7,2.3-1.6,3.1-2.8c0.7-1.2,1.1-2.6,1.1-4.1s-0.4-2.9-1.1-4.1c-0.7-1.2-1.8-2.1-3.1-2.8
                c-1.3-0.7-2.8-1-4.4-1c-1.6,0-3.1,0.3-4.4,1c-1.3,0.7-2.3,1.6-3.1,2.8c-0.7,1.2-1.1,2.6-1.1,4.1s0.4,2.9,1.1,4.1
                c0.7,1.2,1.8,2.1,3.1,2.8C80.2,44.5,81.7,44.9,83.3,44.9z M83.3,40.7c-0.6,0-1.2-0.2-1.7-0.5c-0.5-0.3-0.9-0.8-1.2-1.3
                s-0.5-1.2-0.5-2c0-0.8,0.2-1.4,0.5-2c0.3-0.6,0.7-1,1.2-1.3c0.5-0.3,1.1-0.5,1.7-0.5s1.2,0.2,1.7,0.5c0.5,0.3,0.9,0.8,1.2,1.3
                c0.3,0.6,0.5,1.2,0.5,2c0,0.8-0.2,1.4-0.5,2c-0.3,0.6-0.7,1-1.2,1.3C84.5,40.6,84,40.7,83.3,40.7z M102.5,44.5V33.3h4.4v-4h-14v4
                h4.4v11.2H102.5z M116.5,44.9c1.6,0,3.1-0.3,4.4-1c1.3-0.7,2.3-1.6,3.1-2.8c0.7-1.2,1.1-2.6,1.1-4.1s-0.4-2.9-1.1-4.1
                c-0.7-1.2-1.8-2.1-3.1-2.8c-1.3-0.7-2.8-1-4.4-1c-1.6,0-3.1,0.3-4.4,1c-1.3,0.7-2.3,1.6-3.1,2.8c-0.7,1.2-1.1,2.6-1.1,4.1
                s0.4,2.9,1.1,4.1c0.7,1.2,1.8,2.1,3.1,2.8C113.4,44.5,114.9,44.9,116.5,44.9z M116.5,40.7c-0.6,0-1.2-0.2-1.7-0.5
                c-0.5-0.3-0.9-0.8-1.2-1.3s-0.5-1.2-0.5-2c0-0.8,0.2-1.4,0.5-2c0.3-0.6,0.7-1,1.2-1.3c0.5-0.3,1.1-0.5,1.7-0.5
                c0.6,0,1.2,0.2,1.7,0.5c0.5,0.3,0.9,0.8,1.2,1.3c0.3,0.6,0.5,1.2,0.5,2c0,0.8-0.2,1.4-0.5,2c-0.3,0.6-0.7,1-1.2,1.3
                C117.7,40.6,117.2,40.7,116.5,40.7z M139.5,44.5v-4h-6.8V29.3h-5.1v15.2H139.5z M149.2,44.9c1.6,0,3.1-0.3,4.4-1
                c1.3-0.7,2.3-1.6,3.1-2.8c0.7-1.2,1.1-2.6,1.1-4.1s-0.4-2.9-1.1-4.1c-0.7-1.2-1.8-2.1-3.1-2.8c-1.3-0.7-2.8-1-4.4-1
                c-1.6,0-3.1,0.3-4.4,1c-1.3,0.7-2.3,1.6-3.1,2.8c-0.7,1.2-1.1,2.6-1.1,4.1s0.4,2.9,1.1,4.1c0.7,1.2,1.8,2.1,3.1,2.8
                C146.1,44.5,147.5,44.9,149.2,44.9z M149.2,40.7c-0.6,0-1.2-0.2-1.7-0.5c-0.5-0.3-0.9-0.8-1.2-1.3s-0.5-1.2-0.5-2
                c0-0.8,0.2-1.4,0.5-2c0.3-0.6,0.7-1,1.2-1.3c0.5-0.3,1.1-0.5,1.7-0.5s1.2,0.2,1.7,0.5c0.5,0.3,0.9,0.8,1.2,1.3
                c0.3,0.6,0.5,1.2,0.5,2c0,0.8-0.2,1.4-0.5,2s-0.7,1-1.2,1.3C150.4,40.6,149.8,40.7,149.2,40.7z M165.1,44.5v-3.7l1.1-1.3l3.8,5
                h5.9l-6.4-8.5l6.1-6.7h-5.6l-5,5.5v-5.5h-5v15.2H165.1z"/>
              <path fill="#CF243D" id="Combined-Shape" class="st1" d="M50.6,35.5V45l-4.5-0.1l-3.4-8.5L50.6,35.5z M41.2,36.7l3.3,8.2l-16.9-0.3l-5.8-5.5
                L41.2,36.7z M19.9,39.4l5.5,5.2h-16l-4.7-3.3L19.9,39.4z M0,40.4l6.2,4.2H0V40.4z M9.5,29.6l8.9,8.4L2.7,40L0,38.2v-7.2L9.5,29.6
                z M36.7,25.3l3.9,9.9l-20.2,2.6l-8.9-8.5L36.7,25.3z M50.6,23.2v10.8L42.2,35l-3.9-9.9L50.6,23.2z M0,20.5l8.1,7.7L0,29.5V20.5z
                M32.1,13.6l4.1,10.2l-26.1,4.1l-9.2-8.7L32.1,13.6z M50.6,10.3v11.3l-13,2l-4.1-10.3L50.6,10.3z M26.7,0.3l4.7,11.9L0,17.7V5.3
                L26.7,0.3z M28.3,0l22.3,0v8.8L33,11.9L28.3,0z M19.8,0L0,3.7V0L19.8,0z"/>
            </g>
          </g>
        </g>
    </symbol>

    <symbol id="calc" viewBox="0 0 14 16">
        <g id="Page-1" stroke="none" stroke-width="1" fill="none" fill-rule="evenodd">
            <g id="Artboard-Copy" transform="translate(-675.000000, -59.000000)" fill="#FFFFFF" fill-rule="nonzero">
                <g id="Group-12" transform="translate(645.000000, 47.000000)">
                    <g id="Group-11-Copy">
                        <path d="M32,28 L42,28 C43.1045695,28 44,27.1045695 44,26 L44,14 C44,12.8954305 43.1045695,12 42,12 L32,12 C30.8954305,12 30,12.8954305 30,14 L30,26 C30,27.1045695 30.8954305,28 32,28 Z M32,24 L32,22 L34,22 L34,24 L32,24 Z M32,27 L32,25 L34,25 L34,27 L32,27 Z M32,21 L32,19 L34.0000014,19 L34.0000014,21 L32,21 Z M36,24 L36,22 L38,22 L38,24 L36,24 Z M36,27 L36,25 L38,25 L38,27 L36,27 Z M36,21 L36,19 L38,19 L38,21 L36,21 Z M40,27 L40,22 L42,22 L42,27 L40,27 Z M40,21 L40,19 L42,19 L42,21 L40,21 Z M32,17 L32,14 L42,14 L42,17 L32,17 Z" id="Shape"></path>
                    </g>
                </g>
            </g>
        </g>
    </symbol>

    <symbol id="getSize" viewBox="0 0 15 17">
        <g id="Page-1" stroke="none" stroke-width="1" fill="none" fill-rule="evenodd">
            <g id="Artboard-Copy" transform="translate(-940.000000, -59.000000)" fill="#FFFFFF">
                <g id="Group-12" transform="translate(645.000000, 47.000000)">
                    <g id="Group-11-Copy-2" transform="translate(263.000000, 0.000000)">
                        <g id="noun_measuring_1976046" transform="translate(38.500000, 20.500000) scale(-1, 1) translate(-38.500000, -20.500000) translate(31.000000, 12.000000)">
                            <g id="Group" transform="translate(2.896552, 3.755102)">
                                <path d="M10.3196092,10.5511837 L7.20790805,10.5511837 C7.20790805,10.5511837 9.75510345,7.83983673 9.83974713,7.72946939 C10.1498391,7.32702041 10.1242529,6.56963265 9.80112644,6.09746939 C9.42489655,5.45812245 8.60774713,4.57289796 7.33036782,3.78040816 C7.3154023,3.76979592 1.22041379,0.170122449 1.22041379,0.170122449 C1.20641379,0.161795918 1.19643678,0.159510204 1.18356322,0.152979592 C1.16216092,0.141877551 1.1125977,0.120816327 1.10970115,0.12 C0.825517241,0.0145306122 0.496436782,0.108571429 0.31508046,0.372081633 C0.0992873563,0.686204082 0.175241379,1.11836735 0.484850575,1.33714286 L4.3457931,4.06742857 C4.15252874,4.27330612 3.91195402,4.65583673 3.91195402,5.11167347 L3.91195402,8.4955102 L0.509471264,10.515102 C0.477287356,10.5340408 0.453632184,10.5526531 0.43383908,10.5709388 C0.149977011,10.7934694 0.0638850575,11.1983673 0.250068966,11.5209796 C0.38491954,11.7547755 0.627103448,11.884898 0.876045977,11.884898 C1.00027586,11.884898 1.12643678,11.8524082 1.24149425,11.784 L5.00266667,9.5515102 C5.31452874,9.34955102 5.35363218,9.024 5.35411494,9.02106122 L5.70427586,6.5364898 C5.89303448,6.61616327 6.09627586,6.71820408 6.286,6.84636735 C6.48602299,6.98187755 6.68443678,7.16734694 6.86016092,7.34987755 L4.85526437,10.5748571 C4.76225287,10.7173878 4.55466667,10.9668571 4.67149425,11.4920816 C4.74648276,11.8313469 5.13027586,12.1307755 5.43908046,12.1307755 L10.3196092,12.1307755 C10.7494253,12.1307755 11.0982989,11.7777959 11.0982989,11.3399184 C11.0982989,10.9044898 10.7494253,10.5511837 10.3196092,10.5511837 Z" id="Path"></path>
                                <ellipse id="Oval" cx="2.21393103" cy="5.23281633" rx="1.47611494" ry="1.49763265"></ellipse>
                            </g>
                            <path d="M5.22554023,1.69942857 C5.22425287,1.67771429 5.2236092,1.65567347 5.2236092,1.63363265 C5.2236092,0.744653061 4.51089655,0.0215510204 3.63501149,0.0215510204 L1.73777011,0.0215510204 C0.861563218,0.0215510204 0.148689655,0.744653061 0.148689655,1.63363265 L0.148689655,15.9666939 L2.50551724,15.9666939 L2.50551724,1.63363265 C2.50551724,1.31902041 2.6311954,1.03412245 2.83427586,0.82677551 C2.85535632,0.850122449 2.87627586,0.873632653 2.89816092,0.897142857 C3.07935632,1.09077551 3.23577011,1.25795918 3.23577011,1.63363265 C3.23577011,2.52244898 3.94864368,3.24587755 4.82501149,3.24587755 L6.33411494,3.24587755 L6.33411494,3.24489796 C6.34055172,3.24506122 6.34682759,3.24587755 6.35326437,3.24587755 C7.09574713,3.24587755 7.74908046,2.71216327 7.90597701,1.97665306 L7.96648276,1.69371429 L5.22554023,1.69942857 Z M2.04593103,1.63363265 L2.04593103,15.5004082 L0.608275862,15.5004082 L0.608275862,14.716898 L1.60549425,14.716898 L1.60549425,14.2370612 L0.608275862,14.2370612 L0.608275862,13.4499592 L1.15314943,13.4499592 L1.15314943,12.9701224 L0.608275862,12.9701224 L0.608275862,12.1828571 L1.60549425,12.1828571 L1.60549425,11.7028571 L0.608275862,11.7028571 L0.608275862,10.9159184 L1.15314943,10.9159184 L1.15314943,10.4359184 L0.608275862,10.4359184 L0.608275862,9.64865306 L1.60549425,9.64865306 L1.60549425,9.16881633 L0.608275862,9.16881633 L0.608275862,8.38187755 L1.15314943,8.38187755 L1.15314943,7.90204082 L0.608275862,7.90204082 L0.608275862,7.11461224 L1.60549425,7.11461224 L1.60549425,6.63461224 L0.608275862,6.63461224 L0.608275862,5.84734694 L1.15314943,5.84734694 L1.15314943,5.3675102 L0.608275862,5.3675102 L0.608275862,4.57959184 L1.60549425,4.57959184 L1.60549425,4.09959184 L0.608275862,4.09959184 L0.608275862,3.3124898 L1.15314943,3.3124898 L1.15314943,2.8324898 L0.608275862,2.8324898 L0.608275862,2.04506122 L1.60549425,2.04506122 L1.60549425,1.56506122 L0.615195402,1.56506122 C0.65091954,0.965714286 1.13818391,0.487836735 1.73793103,0.487836735 L2.5183908,0.487836735 C2.22664368,0.780244898 2.04593103,1.18612245 2.04593103,1.63363265 Z M4.82501149,2.77959184 C4.20209195,2.77959184 3.6951954,2.26546939 3.6951954,1.63363265 C3.6951954,1.072 3.42710345,0.785469388 3.23142529,0.576163265 C3.22917241,0.57355102 3.22708046,0.571428571 3.22482759,0.568816327 C3.35227586,0.518040816 3.49002299,0.487836735 3.63485057,0.487836735 C4.25744828,0.487836735 4.76402299,1.00179592 4.76402299,1.63363265 C4.76402299,2.08163265 4.94537931,2.48718367 5.23712644,2.77959184 L4.82501149,2.77959184 Z M6.35326437,2.77959184 C5.91942529,2.77959184 5.54190805,2.53028571 5.35266667,2.16538776 L7.35595402,2.16097959 C7.16478161,2.53191837 6.77986207,2.77959184 6.35326437,2.77959184 Z" id="Shape" fill-rule="nonzero"></path>
                        </g>
                    </g>
                </g>
            </g>
        </g>
    </symbol>

    <symbol id="mobileMenu" viewBox="0 0 20 16">
        <g id="Page-1" stroke="none" stroke-width="1" fill="none" fill-rule="evenodd" opacity="0.796665737">
            <g id="Mobile" transform="translate(-288.000000, -14.000000)" fill="#FFFFFF">
                <g id="Group-Copy" transform="translate(276.000000, 0.000000)">
                    <path d="M13,14 L31,14 C31.5522847,14 32,14.4477153 32,15 C32,15.5522847 31.5522847,16 31,16 L13,16 C12.4477153,16 12,15.5522847 12,15 C12,14.4477153 12.4477153,14 13,14 Z M17,21 L31,21 C31.5522847,21 32,21.4477153 32,22 C32,22.5522847 31.5522847,23 31,23 L17,23 C16.4477153,23 16,22.5522847 16,22 C16,21.4477153 16.4477153,21 17,21 Z M21,28 L31,28 C31.5522847,28 32,28.4477153 32,29 C32,29.5522847 31.5522847,30 31,30 L21,30 C20.4477153,30 20,29.5522847 20,29 C20,28.4477153 20.4477153,28 21,28 Z" id="Combined-Shape"></path>
                </g>
            </g>
        </g>
    </symbol>

    <symbol id="breadcrumb" viewBox="0 0 4 7">
        <g id="Page-1" stroke="none" stroke-width="1" fill="none" fill-rule="evenodd">
            <g id="Desktop" transform="translate(-226.000000, -130.000000)" fill="#8D99AE">
                <g id="breadcrumbs" transform="translate(39.000000, 124.000000)">
                    <path d="M190.375758,10.4541145 L190.109091,10.6898047 L188.993939,11.7504108 L187.854545,12.8581549 C187.806061,12.928862 187.733333,12.952431 187.587879,12.976 C187.490909,12.976 187.393939,12.928862 187.321212,12.8581549 C187.248485,12.7874478 187.224242,12.6931717 187.224242,12.5988956 C187.224242,12.5046195 187.248485,12.4103434 187.321212,12.3396364 L190.278788,9.46421549 L189.381818,8.61573064 L187.321212,6.61236364 C187.272727,6.56522559 187.248485,6.47094949 187.2,6.35310438 C187.2,6.25882828 187.248485,6.16455219 187.321212,6.09384512 C187.393939,6.02313805 187.490909,5.976 187.587879,5.976 C187.684848,5.976 187.806061,6.02313805 187.854545,6.09384512 L191.078788,9.20495623 C191.127273,9.29923232 191.2,9.34637037 191.2,9.48778451 L191.2,9.55849158 L191.078788,9.74704377 L190.375758,10.4541145 Z" id="&gt;"></path>
                </g>
            </g>
        </g>
    </symbol>

    <symbol id="scroll" viewBox="0 0 13 25">
        <rect id="Rectangle" x="0.5" y="0.5" width="12" height="24" rx="6"></rect>
        <path d="M6.5,6.18131868 L6.5,11.6758242" id="Line" stroke-linecap="square"></path>
    </symbol>

    <symbol id="quality" viewBox="0 0 90 115">
        <g id="Page-1" stroke="none" stroke-width="1" fill="none" fill-rule="evenodd">
            <g id="Desktop" transform="translate(-147.000000, -3106.000000)" fill="#2B2D42" fill-rule="nonzero">
                <g id="slide-4" transform="translate(0.000000, 2926.000000)">
                    <g id="Group-8" transform="translate(59.000000, 180.000000)">
                        <g id="Group-3">
                            <g id="quality" transform="translate(88.000000, 0.000000)">
                                <path d="M39.1207224,90.0796578 C34.6053337,94.181814 28.3600263,95.1005457 22.8207574,92.4784573 C20.8182413,91.5303688 19.1283639,90.2213262 17.8054183,88.6534107 L10.2629547,105.054029 C9.91977611,105.800179 10.302996,106.362627 10.483521,106.569681 C10.6640461,106.776512 11.1710093,107.234432 11.9731921,107.015147 L17.4640495,105.512617 C18.0897793,105.341591 18.7222956,105.259081 19.3459893,105.259081 C21.977176,105.259081 24.4536269,106.723136 25.6460424,109.149291 L28.1258867,114.19442 C28.4880679,114.931674 29.1674122,115.005289 29.4501895,114.999729 C29.7275376,114.99617 30.4098228,114.907655 30.7527751,114.161505 L42.75,88.0731707 C41.4318051,88.4461345 40.1835128,89.1139997 39.1207224,90.0796578 Z" id="Shape"></path>
                                <path d="M80.8620582,105.054029 L73.3196966,88.6534107 C71.996769,90.2215486 70.3069144,91.5305912 68.3044254,92.4784573 C62.7650052,95.1005457 56.5200085,94.181814 52.0046809,90.0796578 C50.9419049,89.1139997 49.6936295,88.4461345 48.375,88.0731707 L60.3720626,114.161505 C60.7152365,114.907878 61.3975125,114.99617 61.6746305,114.999729 C61.957404,115.005289 62.6367391,114.931674 62.9989155,114.19442 L65.4787262,109.149291 C66.6708993,106.723136 69.1475429,105.259081 71.778694,105.259081 C72.4023793,105.259081 73.0351133,105.341591 73.6606084,105.512617 L79.1513915,107.015147 C79.9535634,107.234655 80.460746,106.776735 80.6410424,106.569681 C80.8220175,106.362405 81.2052321,105.799957 80.8620582,105.054029 Z" id="Shape"></path>
                                <path d="M86.0663711,46.6011708 C79.8464859,42.3490222 77.916502,33.9063992 81.6726927,27.3808314 C83.9304054,23.4581347 82.7553885,19.5818617 80.9029005,17.2622429 C79.0501878,14.9432969 75.5262601,12.9372068 71.1939045,14.2615178 C63.987014,16.4654136 56.1716125,12.708452 53.4033256,5.7076572 C51.7392985,1.49946546 47.9712027,0 45.0000787,0 C42.0289548,0 38.2608589,1.49946546 36.5968319,5.70788147 C33.8285449,12.7089005 26.0138173,16.4654136 18.806253,14.2617421 C14.4734481,12.9376553 10.9501943,14.9432969 9.09725699,17.2624672 C7.24476897,19.582086 6.06975201,23.4579104 8.32746477,27.3810557 C12.0836555,33.9063992 10.1536716,42.3492465 3.93378637,46.6013951 C0.19466722,49.1578424 -0.430915313,53.1590334 0.229933452,56.0512121 C0.890782218,58.9433908 3.19364474,62.277156 7.67335478,62.9605049 C15.1250872,64.0971024 20.532726,70.8673482 19.9848639,78.3738706 C19.6551134,82.886396 22.3984669,85.869628 25.0753312,87.1569346 C27.7524201,88.4440169 31.7988272,88.7256993 35.1268814,85.6547779 C37.8947191,83.1010218 41.4480728,81.8235831 44.9998541,81.8235831 C48.5529832,81.8235831 52.1043153,83.100349 54.8726022,85.6547779 C58.2011056,88.7259236 62.2477373,88.4442412 64.9246016,87.1569346 C67.6014659,85.8698523 70.3445948,82.8866202 70.0150689,78.3740949 C69.4672068,70.8675725 74.8748456,64.0973267 82.3265781,62.9605049 C86.8062881,62.277156 89.1087014,58.9431665 89.7699994,56.0512121 C90.4310728,53.1585849 89.805041,49.1573938 86.0663711,46.6011708 Z M45.0000787,75.3372624 C28.6978696,75.3372624 15.4350707,62.0954977 15.4350707,45.8191433 C15.4350707,29.5427888 28.697645,16.3007998 45.0000787,16.3007998 C61.3025124,16.3007998 74.5650868,29.5425645 74.5650868,45.818919 C74.5648621,62.0952734 61.3022878,75.3372624 45.0000787,75.3372624 Z" id="Shape"></path>
                                <path d="M45.5625,21.8780488 C32.2253681,21.8780488 21.375,32.6992373 21.375,46 C21.375,59.3007627 32.2251422,70.1219512 45.5625,70.1219512 C58.8998578,70.1219512 69.75,59.3007627 69.75,46 C69.75,32.6992373 58.8996319,21.8780488 45.5625,21.8780488 Z M57.9579189,43.6612212 L42.9045156,54.6263588 C42.4267696,54.9744048 41.8534744,55.1584524 41.2697885,55.1584524 C41.1193494,55.1584524 40.9682326,55.1462877 40.8177934,55.1215077 C40.0838943,55.0005364 39.4292806,54.5903152 39.0014551,53.9829807 L34.498671,47.5892973 C33.6188503,46.3397109 33.9213099,44.6157006 35.1738401,43.7382644 C36.4265963,42.8608281 38.1550654,43.1622426 39.0351119,44.4116038 L41.9151409,48.5012003 L54.6884648,39.1969966 C55.9247314,38.297033 57.6588477,38.5655578 58.5614826,39.7986993 C59.4643435,41.0313903 59.1939596,42.7605818 57.9579189,43.6612212 Z" id="Shape"></path>
                            </g>
                        </g>
                    </g>
                </g>
            </g>
        </g>
    </symbol>

    <symbol id="world" viewBox="0 0 95 95">
        <g id="Page-1" stroke="none" stroke-width="1" fill="none" fill-rule="evenodd">
            <g id="Desktop" transform="translate(-464.000000, -3106.000000)" fill="#2B2D42" fill-rule="nonzero">
                <g id="slide-4" transform="translate(0.000000, 2926.000000)">
                    <g id="Group-8" transform="translate(59.000000, 180.000000)">
                        <g id="Group-2" transform="translate(324.000000, 0.000000)">
                            <g id="world-web" transform="translate(81.000000, 0.000000)">
                                <path d="M49.9327083,0.0623543338 C49.5806936,0.0196908423 49.2284601,0.00897027259 48.8744764,0.0356623032 C48.4174479,0.0231914364 47.9604195,0 47.4998906,0 C46.9929807,0 46.4915402,0.0231914364 45.9883495,0.0391628974 C45.5722326,0.00546967841 45.157866,0.0249417335 44.7452496,0.0870772802 C19.8322774,1.51707 0,22.2320548 0,47.4982497 C0,72.7180617 19.7574552,93.4030727 44.606544,94.9039524 C44.9158969,94.9590868 45.2272188,95 45.5383219,95 C45.6859975,95 45.8299538,94.973308 45.9776293,94.9625874 C46.4845393,94.9785589 46.9894802,95 47.4998906,95 C47.9621697,95 48.4211672,94.9785589 48.8799458,94.9643377 C49.0116505,94.973308 49.1431365,95 49.2765914,95 C49.4704292,95 49.6607666,94.9608371 49.8546044,94.9396148 C74.9561637,93.7089371 95,72.9014053 95,47.4982497 C94.9997812,22.1217861 74.9986067,1.33197609 49.9327083,0.0623543338 Z M73.944094,21.9244401 C72.09454,22.4134294 69.6262801,22.9131392 66.3699799,23.3205209 C64.202103,19.3440647 61.7605342,15.7515799 59.40232,12.6819964 C64.9687031,14.5902578 69.935633,17.7825809 73.944094,21.9244401 Z M62.0576355,52.8335928 C61.6148277,55.3643036 60.8893579,57.8433807 59.9680814,60.2371307 C56.3011337,60.0273138 52.1469662,59.9312663 47.4377575,59.9846504 C42.732268,60.041535 38.5903521,60.219409 34.9376251,60.4843602 C33.9736867,58.017754 33.2143063,55.4548815 32.7590281,52.8335928 L62.0576355,52.8335928 Z M32.7609971,42.1629066 C33.2269954,39.4882339 34.0165673,36.8719773 35.0141976,34.3537373 C38.6474533,34.615188 42.7642097,34.7913116 47.4360073,34.8481963 C48.3500641,34.8589168 49.2409305,34.8641677 50.1125443,34.8641677 C53.7136396,34.8641677 56.9609699,34.7698705 59.904198,34.6044674 C60.855666,37.0463506 61.6060765,39.5768426 62.056104,42.1626878 C62.056104,42.1629066 32.7609971,42.1629066 32.7609971,42.1629066 Z M47.4075661,14.9210639 C49.5594721,17.3699483 52.0758632,20.5141383 54.4373591,24.140535 C52.3228642,24.1904185 50.0394723,24.20639 47.565743,24.1761973 C45.0084402,24.1460047 42.6574457,24.0766492 40.482568,23.9788513 C42.8138724,20.419841 45.2876017,17.334286 47.4075661,14.9210639 Z M35.344772,12.7762936 C33.0721002,15.7408593 30.7263564,19.1876318 28.6260821,22.9951844 C25.5104565,22.5843021 23.1113307,22.1165352 21.2921868,21.6667089 C25.1941027,17.7077557 29.9938857,14.6543624 35.344772,12.7762936 Z M14.7017012,30.8290766 C16.9885936,31.6436211 20.0420861,32.4456947 24.1163994,33.1178088 C23.13474,36.0254899 22.3913304,39.0506596 21.980683,42.1629066 L11.1023561,42.1629066 C11.6908705,38.1383172 12.9179995,34.3255138 14.7017012,30.8290766 Z M11.1023561,52.8335928 L21.9804642,52.8335928 C22.3841107,55.8907055 23.108049,58.8642414 24.0647677,61.7240081 C19.9744835,62.4015918 16.9174905,63.2089164 14.6340986,64.0289306 C12.887808,60.5696872 11.6821193,56.8047981 11.1023561,52.8335928 Z M21.1677018,73.1982994 C22.9850954,72.7430034 25.3949414,72.2682353 28.5407584,71.8503519 C30.6642233,75.7185085 33.04169,79.2201966 35.344772,82.2239252 C29.9350343,80.3244153 25.0943396,77.2193882 21.1677018,73.1982994 Z M47.3985961,80.0896567 C45.2414394,77.6407722 42.7197976,74.494832 40.3545825,70.8596837 C42.5668714,70.7601356 44.9587775,70.6872795 47.565743,70.6568681 C50.0821341,70.6249252 52.3974677,70.6426469 54.542154,70.6942807 C52.1467475,74.3952839 49.5841941,77.6016094 47.3985961,80.0896567 Z M59.4007885,82.3180036 C61.7909444,79.2075069 64.2664239,75.5598878 66.4555223,71.519327 C69.742014,71.9319595 72.2227442,72.4423899 74.068579,72.93663 C70.0371463,77.1465321 65.0273358,80.3902702 59.4007885,82.3180036 Z M80.4866672,63.7779817 C78.1498933,62.8923314 75.0287982,62.0403743 70.8711302,61.3682602 C71.7692162,58.6187623 72.4485237,55.7644653 72.8344491,52.8335928 L83.8958936,52.8335928 C83.330351,56.7105009 82.1673242,60.3883126 80.4866672,63.7779817 Z M83.8976439,42.1629066 L72.8361993,42.1629066 C72.441304,39.1786501 71.7442755,36.2727193 70.8212487,33.475307 C74.9629458,32.8066935 78.0787902,31.9599873 80.4190646,31.0780563 C82.1371327,34.5068883 83.3231313,38.2326145 83.8976439,42.1629066 Z" id="Shape"></path>
                            </g>
                        </g>
                    </g>
                </g>
            </g>
        </g>
    </symbol>

    <symbol id="like" viewBox="0 0 103 100">
        <g id="Page-1" stroke="none" stroke-width="1" fill="none" fill-rule="evenodd">
            <g id="Desktop" transform="translate(-773.000000, -3106.000000)" fill="#2B2D42" fill-rule="nonzero">
                <g id="slide-4" transform="translate(0.000000, 2926.000000)">
                    <g id="Group-8" transform="translate(59.000000, 180.000000)">
                        <g id="Group-4" transform="translate(640.000000, 0.000000)">
                            <g id="like" transform="translate(74.000000, 0.000000)">
                                <path d="M16.813543,31.8545018 L3.36278906,31.8545018 C1.51361719,31.8545018 0,33.3709005 0,35.2403694 L0,96.1882147 C0,98.0568733 1.50697852,99.5736771 3.36278906,99.5736771 L16.813543,99.5736771 C18.6693535,99.5736771 20.176332,98.0566707 20.176332,96.1882147 L20.176332,35.2403694 C20.176332,33.3709005 18.6625137,31.8545018 16.813543,31.8545018 Z" id="Shape"></path>
                                <path d="M94.604293,31.8545018 C94.0627383,31.7621323 68.705627,31.8545018 68.705627,31.8545018 L72.247459,22.124918 C74.6912949,15.4050393 73.1090781,5.14453364 66.3281777,1.49674997 C64.1203164,0.308911045 61.0355469,-0.28764176 58.548459,0.342739336 C57.1221504,0.704114617 55.8686484,1.65495294 55.1214961,2.92888183 C54.262291,4.39403172 54.3510078,6.10428481 54.0450254,7.72885305 C53.2691055,11.8494225 51.3354414,15.7672248 48.340998,18.7078554 C43.1201855,23.8349685 26.9019102,38.626237 26.9019102,38.626237 L26.9019102,92.8021462 L82.9469863,92.8021445 C90.5094395,92.8066009 95.4655098,84.3029382 91.735582,77.6606417 C96.1816816,74.7933396 97.7023398,68.7538754 95.0983711,64.1167662 C99.5446719,61.249464 101.065129,55.2099998 98.4611602,50.5728906 C106.132648,45.6256549 103.567908,33.3810288 94.604293,31.8545018 Z" id="Shape"></path>
                            </g>
                        </g>
                    </g>
                </g>
            </g>
        </g>
    </symbol>

    <symbol id="firewall" viewBox="0 0 84 110">
        <g id="Page-1" stroke="none" stroke-width="1" fill="none" fill-rule="evenodd">
            <g id="Desktop" transform="translate(-152.000000, -3512.000000)" fill="#2B2D42" fill-rule="nonzero">
                <g id="slide-4" transform="translate(0.000000, 2926.000000)">
                    <g id="Group-8" transform="translate(59.000000, 180.000000)">
                        <g id="Group-6" transform="translate(8.000000, 406.000000)">
                            <g id="firewall" transform="translate(85.000000, 0.000000)">
                                <path d="M79.2933195,13.874439 L41.1427403,0.340257776 C40.6605273,0.168331379 40.1301351,0.168331379 39.6481325,0.340257776 L1.49755325,13.874439 C0.601293506,14.1937611 0.000631168831,15.0464146 0.000631168831,16.0024776 L0.000631168831,43.0708401 C0.000631168831,78.1002618 5.16843117,90.9031744 39.3851455,108.243844 C39.7028338,108.404563 40.0491351,108.486191 40.3954364,108.486191 C40.7417377,108.486191 41.088039,108.404774 41.4057273,108.243844 C75.6224416,90.9031744 80.7902416,78.1002618 80.7902416,43.0708401 L80.7902416,16.0024776 C80.7902416,15.0464146 80.1895792,14.1939726 79.2933195,13.874439 Z M41.4450701,98.0733298 C40.7547818,98.4389642 39.8913429,98.4104155 39.2380831,98.0115801 C38.567361,97.6061891 38.151,96.8660386 38.151,96.0797872 L38.151,58.8607887 C38.151,57.6139523 37.1472312,56.6050214 35.906774,56.6050214 L11.4382519,56.6050214 C10.2350338,56.6050214 9.25104156,55.6599549 9.19634026,54.4528751 C9.04065195,51.0075801 8.97711429,47.2628413 8.97711429,43.0708401 L8.97711429,22.3861702 C8.97711429,21.4324334 9.57988052,20.5776653 10.4740364,20.2604579 L39.6525506,9.90934687 C39.889239,9.82348941 40.1391818,9.78161804 40.3954364,9.78161804 C40.8622909,9.78161804 41.3114727,9.9247843 41.6905948,10.1956794 C42.2845247,10.6186226 42.6394519,11.3059052 42.6394519,12.0371739 L42.6394519,49.8377193 C42.6394519,51.0845557 43.6432208,52.0934866 44.8836779,52.0934866 L69.3524104,52.0934866 C69.9638026,52.0934866 70.5533143,52.3468296 70.9740935,52.7873249 C71.3948727,53.2322611 71.6206208,53.8402419 71.5943221,54.4526636 C70.5577325,77.2036223 64.6405247,85.7661067 41.4450701,98.0733298 Z" id="Shape"></path>
                            </g>
                        </g>
                    </g>
                </g>
            </g>
        </g>
    </symbol>

    <symbol id="calendar" viewBox="0 0 123 123">
        <g id="Page-1" stroke="none" stroke-width="1" fill="none" fill-rule="evenodd">
            <g id="Desktop" transform="translate(-455.000000, -3505.000000)" fill="#2B2D42" fill-rule="nonzero">
                <g id="slide-4" transform="translate(0.000000, 2926.000000)">
                    <g id="Group-8" transform="translate(59.000000, 180.000000)">
                        <g id="Group-5" transform="translate(324.000000, 399.000000)">
                            <g id="calendar-with-a-clock-time-tools" transform="translate(72.000000, 0.000000)">
                                <path d="M15.2253992,19.1488636 L15.2253992,3.82972221 C15.2253992,1.71267865 16.9276255,0 19.032251,0 C21.1358724,0 22.8380988,1.71267865 22.8380988,3.82972221 L22.8380988,19.1488636 C22.8380988,21.2654021 21.1358724,22.9780807 19.032251,22.9780807 C16.9276255,22.9783333 15.2253992,21.2654021 15.2253992,19.1488636 Z M79.9335967,22.9783333 C82.036716,22.9783333 83.7399465,21.2656546 83.7399465,19.1491162 L83.7399465,3.82972221 C83.7399465,1.71267865 82.036716,0 79.9335967,0 C77.8294733,0 76.1259918,1.71267865 76.1259918,3.82972221 L76.1259918,19.1488636 C76.1259918,21.2654021 77.8294733,22.9783333 79.9335967,22.9783333 Z M121.802189,91.9118177 C121.802189,108.833012 108.168313,122.550353 91.351642,122.550353 C74.5362263,122.550353 60.9013457,108.833012 60.9013457,91.9118177 C60.9013457,74.9931491 74.5359753,61.2750503 91.351642,61.2750503 C108.168313,61.2750503 121.802189,74.9928965 121.802189,91.9118177 Z M114.190494,91.9118177 C114.190494,79.242643 103.946008,68.9339896 91.351893,68.9339896 C78.7587819,68.9339896 68.5142963,79.2423904 68.5142963,91.9118177 C68.5142963,104.583518 78.7587819,114.890656 91.351893,114.890656 C103.946008,114.890656 114.190494,104.583518 114.190494,91.9118177 Z M30.4510494,45.956414 L15.2253992,45.956414 L15.2253992,61.2750503 L30.4510494,61.2750503 L30.4510494,45.956414 Z M15.2253992,84.2533836 L30.4510494,84.2533836 L30.4510494,68.9339896 L15.2253992,68.9339896 L15.2253992,84.2533836 Z M38.0632469,61.2750503 L53.2891481,61.2750503 L53.2891481,45.956414 L38.0632469,45.956414 L38.0632469,61.2750503 Z M38.0632469,84.2533836 L53.2891481,84.2533836 L53.2891481,68.9339896 L38.0632469,68.9339896 L38.0632469,84.2533836 Z M7.61320165,91.1503185 L7.61320165,38.296717 L91.351893,38.296717 L91.351893,53.6158584 L98.9648436,53.6158584 L98.9648436,23.7416005 C98.9648436,19.0890045 95.2767284,15.3186363 90.7203045,15.3186363 L87.5455432,15.3186363 L87.5455432,19.1491162 C87.5455432,23.3672914 84.1325556,26.8083081 79.9338477,26.8083081 C75.7338848,26.8083081 72.3211481,23.3672914 72.3211481,19.1491162 L72.3211481,15.3186363 L26.6441975,15.3186363 L26.6441975,19.1491162 C26.6441975,23.3672914 23.231963,26.8083081 19.0325021,26.8083081 C14.832037,26.8083081 11.4195514,23.3672914 11.4195514,19.1491162 L11.4195514,15.3186363 L8.24855556,15.3186363 C3.69188066,15.3186363 0.000251028807,19.0890045 0.000251028807,23.7416005 L0.000251028807,91.1505711 C0.000251028807,95.7877603 3.69188066,99.5727775 8.24855556,99.5727775 L53.2891481,99.5727775 L53.2891481,91.9120703 L8.24855556,91.9120703 C7.90364198,91.9118177 7.61320165,91.5534206 7.61320165,91.1503185 Z M76.1259918,61.2750503 L76.1259918,45.956414 L60.9015967,45.956414 L60.9015967,61.2750503 L76.1259918,61.2750503 Z M102.770942,91.9118177 L91.351642,91.9118177 L91.351642,80.4223985 C91.351642,78.3066178 89.6494156,76.5939391 87.5452922,76.5939391 C85.4411687,76.5939391 83.7399465,78.3066178 83.7399465,80.4223985 L83.7399465,95.7428028 C83.7399465,97.858836 85.4411687,99.572525 87.5452922,99.572525 L102.770942,99.572525 C104.875066,99.572525 106.577292,97.858836 106.577292,95.7428028 C106.577292,93.6257592 104.875066,91.9118177 102.770942,91.9118177 Z" id="Shape"></path>
                            </g>
                        </g>
                    </g>
                </g>
            </g>
        </g>
    </symbol>

    <symbol id="settings" viewBox="0 0 118 118">
        <g id="Page-1" stroke="none" stroke-width="1" fill="none" fill-rule="evenodd">
            <g id="Desktop" transform="translate(-765.000000, -3508.000000)" fill="#2B2D42" fill-rule="nonzero">
                <g id="slide-4" transform="translate(0.000000, 2926.000000)">
                    <g id="Group-8" transform="translate(59.000000, 180.000000)">
                        <g id="Group-7" transform="translate(632.000000, 402.000000)">
                            <g id="settings-gears" transform="translate(74.000000, 0.000000)">
                                <path d="M109.741138,44.6015649 L105.757215,41.2333831 C104.530547,40.1950714 102.721846,40.2457208 101.558414,41.3473442 L99.3577706,43.4113052 C97.4987331,42.5122792 95.5257428,41.8791623 93.4893891,41.5119545 L92.8699207,38.4729935 C92.5537363,36.9028636 91.0992883,35.8139026 89.5054662,35.940526 L84.3073955,36.3837078 C82.7138264,36.5229935 81.4617363,37.8272143 81.4111468,39.4353312 L81.3100943,42.5249416 C79.3116827,43.2466948 77.427224,44.2343571 75.7071811,45.4752662 L73.0766538,43.7278636 C71.7357792,42.8415 69.9526259,43.0947468 68.9156677,44.3229935 L65.5514662,48.3369545 C64.5142551,49.5652013 64.5648446,51.3759156 65.6650397,52.5408506 L67.9669882,54.9972175 C67.1700772,56.7952695 66.6009453,58.6820844 66.2722401,60.6192955 L62.9839228,61.2903994 C61.4156484,61.6069578 60.3279743,63.0631266 60.454448,64.6587078 L60.8971061,69.8629286 C61.0362272,71.4583831 62.3389068,72.7119545 63.9451233,72.7626039 L67.4990354,72.8764383 C68.1443044,74.5731916 68.991552,76.1814351 70.0158628,77.6881266 L68.0303516,80.6891006 C67.1450354,82.0313084 67.3979829,83.8166981 68.6246517,84.8550097 L72.6085745,88.2231916 C73.8354962,89.2615032 75.6439443,89.2108539 76.8076292,88.1092305 L79.4129882,85.6653994 C81.1203837,86.4631266 82.9161844,87.0582565 84.762701,87.4128019 L85.4837278,90.9835812 C85.7999121,92.553711 87.2543601,93.6426721 88.8479293,93.5160487 L94.046,93.0728669 C95.6395691,92.9335812 96.8916592,91.629487 96.9422487,90.0212435 L97.056075,86.5263117 C98.9531811,85.8552078 100.748982,84.9435195 102.405788,83.8166981 L105.276868,85.7160487 C106.61749,86.6024123 108.400643,86.3491656 109.437854,85.1209188 L112.802056,81.1322825 C113.839014,79.9040357 113.788424,78.0933214 112.688229,76.9283864 L110.373633,74.4720195 C111.221134,72.6739675 111.840982,70.7746169 112.194855,68.8244903 L115.356699,68.178711 C116.924973,67.8621526 118.012647,66.4059838 117.886174,64.8104026 L117.443516,59.6061818 C117.304394,58.0107273 116.001715,56.7571558 114.395498,56.7065065 L111.221008,56.6052078 C110.563218,54.7565065 109.677901,53.0092305 108.577706,51.3883247 L110.31027,48.7798831 C111.221008,47.4379286 110.96806,45.6398766 109.741138,44.6015649 Z M90.1506088,74.6871526 C84.5351747,75.1684481 79.5771511,70.9770877 79.1093248,65.3551364 C78.6285981,59.7330584 82.8151318,54.7692955 88.430313,54.300789 C94.0457471,53.8196201 99.0037706,58.0109805 99.471597,63.6329318 C99.9523237,69.2551364 95.7657899,74.2187727 90.1506088,74.6871526 Z" id="Shape"></path>
                                <path d="M7.74019293,42.7402013 C8.35991426,44.867474 9.21993569,46.9187727 10.3076099,48.8434481 L7.20900322,52.7561104 C6.19721329,54.0350065 6.31103966,55.8583831 7.44930332,57.0106558 L12.7864952,62.3541623 C13.9374062,63.5064351 15.7586281,63.6076071 17.0360129,62.5946201 L20.9187567,59.5176721 C22.9170418,60.6700714 25.0418006,61.5689708 27.2550911,62.2020877 L27.8368703,67.203711 C28.0265809,68.8244903 29.3924973,70.0400747 31.0113612,70.0400747 L38.5618435,70.0400747 C40.1807074,70.0400747 41.5466238,68.8243636 41.7363344,67.203711 L42.2928189,62.3793604 C44.6705252,61.7589058 46.9470525,60.8345552 49.0844587,59.6316331 L52.8407288,62.6072825 C54.1181136,63.6202695 55.9393355,63.5063084 57.0902465,62.3666981 L62.4274384,57.0231916 C63.5783494,55.8709188 63.6795284,54.0475422 62.6677385,52.7686461 L59.7461951,49.0585812 C60.960343,46.9565065 61.908896,44.7153994 62.5412647,42.3728669 L67.0437299,41.853711 C68.6627203,41.663776 69.8767417,40.2962435 69.8767417,38.6754643 L69.8767417,31.1160487 C69.8767417,29.4952695 68.6625938,28.127737 67.0437299,27.9378019 L62.6045016,27.4186461 C61.9973012,25.1014383 61.0868167,22.8855292 59.9233848,20.8089058 L62.6552176,17.3520877 C63.6670075,16.0731916 63.5531811,14.2498149 62.4149175,13.0975422 L57.090373,7.76669805 C55.939462,6.61442532 54.1182401,6.51312662 52.8408553,7.52611364 L49.4893012,10.1852045 C47.3139528,8.90630844 44.9867095,7.93130844 42.5458928,7.27286688 L42.0399979,2.92968506 C41.8502872,1.30890584 40.4843708,0.0933214286 38.865507,0.0933214286 L31.3150247,0.0933214286 C29.6961608,0.0933214286 28.3302444,1.30890584 28.1405338,2.92968506 L27.6346388,7.27286688 C25.1304587,7.94397078 22.740105,8.95695779 20.5141672,10.2865032 L17.0361393,7.52611364 C15.7587546,6.51312662 13.9375327,6.62708766 12.7866217,7.76669805 L7.4494298,13.1102045 C6.29851876,14.2624773 6.19733976,16.0858539 7.20912969,17.36475 L10.1180257,21.0494903 C8.95446731,23.1514383 8.06915113,25.3926721 7.48737192,27.7225422 L2.83313826,28.2543604 C1.21427438,28.4442955 0.000126473741,29.8118279 0.000126473741,31.4326071 L0.000126473741,38.9920227 C0.000126473741,40.6128019 1.21427438,41.9803344 2.83313826,42.1702695 L7.74019293,42.7402013 Z M35.096463,22.290526 C41.9766345,22.290526 47.5794212,27.8999416 47.5794212,34.7882532 C47.5794212,41.6765649 41.9766345,47.2859805 35.096463,47.2859805 C28.216418,47.2859805 22.6135048,41.6765649 22.6135048,34.7882532 C22.6135048,27.8999416 28.2162915,22.290526 35.096463,22.290526 Z" id="Shape"></path>
                                <path d="M25.9271168,88.6918247 C24.3335477,88.8564351 23.1067524,90.1985162 23.094105,91.8067597 L23.0561629,95.0103312 C23.0308682,96.6184481 24.2197213,97.9859805 25.8132905,98.1887045 L28.165702,98.492474 C28.5577706,99.9234448 29.1142551,101.290977 29.8351554,102.582536 L28.3174705,104.456562 C27.3056806,105.710006 27.3815648,107.508185 28.5071811,108.660458 L30.7457663,110.952341 C31.8713826,112.104614 33.6673098,112.231237 34.9446945,111.243575 L36.8290268,109.787406 C38.1570011,110.572471 39.5609861,111.193052 41.027955,111.623445 L41.2809025,114.054614 C41.4453183,115.650068 42.78594,116.878315 44.3921565,116.890977 L47.5920686,116.928964 C49.1981586,116.954289 50.5642015,115.764029 50.7665595,114.168575 L51.0574491,111.864029 C52.6511447,111.47137 54.1688296,110.876367 55.6105038,110.091302 L57.3811361,111.522146 C58.6332262,112.535133 60.4292797,112.459159 61.5801908,111.332211 L63.8693655,109.090977 C65.0202765,107.964156 65.1467503,106.165977 64.1603816,104.887081 L62.8068596,103.12689 C63.6415863,101.734032 64.2867288,100.252539 64.7293869,98.6950714 L66.828851,98.4798117 C68.4224202,98.3152013 69.649089,96.9729935 69.6618628,95.3648766 L69.6996785,92.1611786 C69.7250997,90.5531883 68.5362465,89.1855292 66.9426774,88.9829318 L64.8936763,88.7170227 C64.5016077,87.1722175 63.919955,85.6780617 63.1611125,84.2852045 L64.4384973,82.7150747 C65.4502872,81.4615032 65.374403,79.6634513 64.2487867,78.5111786 L62.010328,76.2192955 C60.8847117,75.0668961 59.0885316,74.9402727 57.8112733,75.9280617 L56.2808146,77.1056591 C54.8391404,76.2319578 53.2960343,75.5608539 51.6772969,75.1050097 L51.4748124,73.1170227 C51.3103966,71.5214416 49.9699014,70.2933214 48.3635584,70.2806591 L45.1637728,70.2426721 C43.5575563,70.2173474 42.1916399,71.4076071 41.9891554,73.0030617 L41.7362079,74.978513 C40.066881,75.4089058 38.4606645,76.067474 36.9682744,76.9283864 L35.3873526,75.6368279 C34.1352626,74.6238409 32.339209,74.6999416 31.188298,75.826763 L28.8864759,78.0807857 C27.7355648,79.2076071 27.6090911,81.0057857 28.5955863,82.2845552 L29.9488553,84.0320844 C29.1647181,85.4249416 28.5449968,86.9063084 28.1402808,88.4639026 L25.9271168,88.6918247 Z M46.5802787,85.0702695 C51.1712755,85.1209188 54.8515348,88.9070844 54.8010718,93.503513 C54.7504823,98.0999416 50.968791,101.784555 46.3777942,101.734032 C41.7867974,101.683383 38.106538,97.8973442 38.1570011,93.300789 C38.207717,88.704487 41.9892819,85.0197468 46.5802787,85.0702695 Z" id="Shape"></path>
                            </g>
                        </g>
                    </g>
                </g>
            </g>
        </g>
    </symbol>


    <symbol id="quote">
        <g id="Page-1" stroke="none" stroke-width="1" fill="none" fill-rule="evenodd">
            <g id="Desktop" transform="translate(-334.000000, -4649.000000)" fill="#30404F">
                <g id="slide-5-2" transform="translate(-1.000000, 4445.000000)">
                    <g id="review1" transform="translate(67.000000, 166.000000)">
                        <path d="M279.507937,53 L279,52.1207815 C281.878321,50.5221945 283.31746,49.0124405 283.31746,47.5914742 C283.31746,46.9875636 282.775667,46.3925429 281.692063,45.8063943 C280.726979,45.273532 280.05397,44.7406776 279.673016,44.2078153 C279.292062,43.6749529 279.101587,42.9822423 279.101587,42.1296625 C279.101587,40.9928895 279.486769,40.0204303 280.257143,39.2122558 C281.027517,38.4040812 281.946026,38 283.012698,38 C284.19789,38 285.158726,38.4973307 285.895238,39.4920071 C286.63175,40.4866835 287,41.7832957 287,43.3818828 C287,46.0106703 286.051861,48.2664204 284.155556,50.1492007 C283.512166,50.7708734 282.881485,51.2726446 282.263492,51.6545293 C281.6455,52.036414 280.72699,52.4848997 279.507937,53 Z M268.507937,53 L268,52.1207815 C270.878321,50.5044324 272.31746,48.9946784 272.31746,47.5914742 C272.31746,47.2539948 272.198943,46.9564844 271.961905,46.6989343 C271.724867,46.4413841 271.30159,46.1438738 270.692063,45.8063943 C269.760842,45.3090561 269.096298,44.7806422 268.698413,44.2211368 C268.300527,43.6616313 268.101587,42.9644802 268.101587,42.1296625 C268.101587,40.9751274 268.482536,39.9982278 269.244444,39.1989343 C270.006353,38.3996408 270.92063,38 271.987302,38 C273.189424,38 274.158726,38.4973307 274.895238,39.4920071 C275.63175,40.4866835 276,41.7832957 276,43.3818828 C276,44.6429903 275.758733,45.8507935 275.27619,47.0053286 C274.793648,48.1598637 274.078312,49.2078106 273.130159,50.1492007 C272.029624,51.2149254 270.488899,52.1651823 268.507937,53 Z" id="&quot;" transform="translate(277.500000, 45.500000) rotate(180.000000) translate(-277.500000, -45.500000) "></path>
                    </g>
                </g>
            </g>
        </g>
    </symbol>


    <symbol id="phone" viewBox="0 0 15 15">
        <g id="Page-1" stroke="none" stroke-width="1" fill="none" fill-rule="evenodd">
            <g id="Artboard-Copy" transform="translate(-570.000000, -10.000000)" fill="#BCBCC1">
                <path d="M570.05374,11.4918322 C570.09319,11.176192 570.854628,10.6002139 571.68127,10.2634451 L572.402718,10.034339 C572.783168,9.95423473 573.216936,10.0139456 573.283047,10.2169612 L574.373056,13.5589215 C574.671542,14.4738742 572.397136,14.3358956 572.565924,14.6915875 C573.577752,16.819862 574.933105,18.7941702 576.547854,20.4916099 C576.8177,20.7750988 577.468533,18.5479767 578.209441,19.1471073 L580.915631,21.3347252 C581.080277,21.4675586 580.986785,21.903722 580.78305,22.2410416 L580.324962,22.8539495 C579.732131,23.5309778 578.94097,24.0639642 578.636716,23.9937818 C574.006659,22.9283582 569.451899,16.2938522 570.053737,11.4918259 L570.05374,11.4918322 Z" id="Path"></path>
            </g>
        </g>
    </symbol>
</svg>
